<svg width="16" height="16" viewBox="0 0 16 16" fill="none" xmlns="http://www.w3.org/2000/svg">
<path d="M11.3333 12.3333C2 12.3333 1.99999 12.3465 2 1.66658C2.01185 7.14537 2.7581 7.14537 11.3333 7.14537" stroke="white" stroke-linecap="round" stroke-linejoin="round"/>
<path d="M14.1668 6.99992C14.1668 7.64425 13.6445 8.16659 13.0002 8.16659C12.3558 8.16659 11.8335 7.64425 11.8335 6.99992C11.8335 6.35559 12.3558 5.83325 13.0002 5.83325C13.6445 5.83325 14.1668 6.35559 14.1668 6.99992Z" stroke="white"/>
<path d="M14.1668 12.3332C14.1668 12.9775 13.6445 13.4998 13.0002 13.4998C12.3558 13.4998 11.8335 12.9775 11.8335 12.3332C11.8335 11.6888 12.3558 11.1665 13.0002 11.1665C13.6445 11.1665 14.1668 11.6888 14.1668 12.3332Z" stroke="white"/>
</svg>
