<svg width="16" height="16" viewBox="0 0 16 16" fill="none" xmlns="http://www.w3.org/2000/svg">
<path d="M3 10.6665C3 10.6665 3.07692 6.81465 8.00016 6.36527M8.00016 6.36527C12.5128 6.81465 13 10.6665 13 10.6665M8.00016 6.36527L8.00016 1.99984" stroke="white" stroke-linecap="round" stroke-linejoin="round"/>
<path d="M4.16683 12.3332C4.16683 12.9775 3.6445 13.4998 3.00016 13.4998C2.35583 13.4998 1.8335 12.9775 1.8335 12.3332C1.8335 11.6888 2.35583 11.1665 3.00016 11.1665C3.6445 11.1665 4.16683 11.6888 4.16683 12.3332Z" stroke="white"/>
<path d="M14.1668 12.3332C14.1668 12.9775 13.6445 13.4998 13.0002 13.4998C12.3558 13.4998 11.8335 12.9775 11.8335 12.3332C11.8335 11.6888 12.3558 11.1665 13.0002 11.1665C13.6445 11.1665 14.1668 11.6888 14.1668 12.3332Z" stroke="white"/>
</svg>
