<svg width="799" height="799" viewBox="0 0 799 799" fill="none" xmlns="http://www.w3.org/2000/svg">
<g style="mix-blend-mode:difference">
<path fill-rule="evenodd" clip-rule="evenodd" d="M399.5 741C604.122 741 770 575.121 770 370.5C770 165.879 604.122 0 399.5 0C194.878 0 29 165.879 29 370.5C29 575.121 194.878 741 399.5 741ZM356.062 697.205C491.414 732.094 638.941 613.724 685.57 432.821C732.2 251.918 660.275 76.9829 524.921 42.0945C389.569 7.20599 242.042 125.575 195.413 306.479C148.784 487.382 220.708 662.317 356.062 697.205Z" fill="white"/>
</g>
<g style="mix-blend-mode:difference">
<path d="M721 726.181C721 766.398 688.506 799 648.423 799C464.761 799 387 637.757 387 585C440.322 726.181 573.5 687.478 600.286 671.683C603.5 669.788 629.954 653.362 648.423 653.362C688.506 653.362 721 685.964 721 726.181Z" fill="white"/>
</g>
</svg>
