<svg width="799" height="799" viewBox="0 0 799 799" fill="none" xmlns="http://www.w3.org/2000/svg">
<g style="mix-blend-mode:difference">
<path fill-rule="evenodd" clip-rule="evenodd" d="M295 672C457.924 672 590 539.924 590 377C590 214.077 457.924 82 295 82C132.076 82 0 214.077 0 377C0 539.924 132.076 672 295 672ZM260.413 637.13C368.184 664.909 485.648 570.66 522.775 426.621C559.902 282.582 502.635 143.295 394.863 115.517C287.093 87.7376 169.629 181.986 132.501 326.025C95.3743 470.064 152.642 609.351 260.413 637.13Z" fill="white"/>
</g>
<g style="mix-blend-mode:difference">
<path d="M689.476 481.261H688.236C687.409 486.64 680.587 492.018 667.771 497.397L621.261 516.015C608.031 521.394 597.902 529.048 590.874 538.978C583.846 548.494 580.332 560.493 580.332 574.974C580.332 581.18 580.952 587.593 582.192 594.213C583.432 600.833 585.706 606.832 589.014 612.211C592.321 617.175 596.869 621.313 602.657 624.623C608.858 627.933 616.713 629.588 626.222 629.588C639.865 629.588 650.821 626.692 659.089 620.899C667.771 615.107 674.179 607.866 678.313 599.178C682.861 590.489 685.755 581.18 686.995 571.25C688.649 560.906 689.476 551.597 689.476 543.322V481.261ZM798 626.485C792.625 630.622 786.217 634.139 778.776 637.035C771.334 640.345 762.239 642 751.49 642C731.645 642 717.175 637.863 708.08 629.588C699.398 620.899 693.403 608.901 690.096 593.592H688.856C687.202 597.316 684.928 602.074 682.034 607.866C679.14 613.245 674.593 618.624 668.391 624.002C662.603 628.967 654.748 633.105 644.826 636.414C634.904 640.138 622.294 642 606.998 642C589.634 642 575.784 639.931 565.449 635.794C555.113 632.07 547.051 627.312 541.263 621.52C535.475 615.727 531.548 609.314 529.481 602.281C527.827 594.833 527 588.007 527 581.8C527 567.319 529.894 555.735 535.682 547.046C541.47 538.357 548.912 531.531 558.007 526.566C567.516 521.187 577.851 516.843 589.014 513.533C600.59 510.223 612.166 506.706 623.741 502.982C637.384 498.431 648.547 494.501 657.229 491.191C666.324 487.881 673.352 483.95 678.313 479.399C683.275 474.434 686.582 468.435 688.236 461.401C690.303 453.954 691.336 444.024 691.336 431.612C691.336 421.682 690.716 412.787 689.476 404.925C688.236 397.064 685.962 390.444 682.654 385.066C679.347 379.273 674.593 374.929 668.391 372.033C662.19 369.137 653.921 367.689 643.586 367.689C629.943 367.689 618.574 370.171 609.478 375.136C600.796 379.687 596.455 387.341 596.455 398.099C596.455 405.132 597.076 412.166 598.316 419.2C599.556 425.819 600.176 430.784 600.176 434.094C600.176 439.887 598.109 444.852 593.975 448.989C589.841 452.713 583.846 454.575 575.991 454.575C562.348 454.575 553.873 452.092 550.565 447.127C547.258 442.162 545.604 435.749 545.604 427.888C545.604 418.786 547.671 410.097 551.805 401.822C555.94 393.548 561.934 386.307 569.789 380.101C578.058 373.481 588.187 368.309 600.176 364.586C612.579 360.862 626.635 359 642.346 359C661.363 359 677.28 361.482 690.096 366.447C702.912 370.999 713.248 377.412 721.103 385.686C728.958 393.548 734.539 402.65 737.847 412.993C741.154 422.923 742.808 433.474 742.808 444.645V599.178C742.808 611.176 744.668 619.244 748.389 623.382C752.11 627.519 757.484 629.588 764.513 629.588C769.06 629.588 773.815 628.76 778.776 627.105C783.737 625.45 788.491 622.968 793.039 619.658L798 626.485Z" fill="white"/>
</g>
<g style="mix-blend-mode:difference">
<path d="M551 660.153C551 692.101 525.122 718 493.2 718C346.929 718 285 589.91 285 548C327.466 660.153 438.348 626.574 454.863 616.86C466.619 609.945 478.49 602.306 493.2 602.306C525.122 602.306 551 628.205 551 660.153Z" fill="white"/>
</g>
</svg>
