<svg width="799" height="799" viewBox="0 0 799 799" fill="none" xmlns="http://www.w3.org/2000/svg">
<g style="mix-blend-mode:difference">
<path fill-rule="evenodd" clip-rule="evenodd" d="M280 651C434.64 651 560 525.64 560 371C560 216.361 434.64 91 280 91C125.36 91 0 216.361 0 371C0 525.64 125.36 651 280 651ZM247.172 617.903C349.463 644.269 460.954 554.813 496.193 418.098C531.433 281.383 477.077 149.179 374.785 122.812C272.495 96.4458 161.004 185.902 125.764 322.617C90.5247 459.332 144.88 591.536 247.172 617.903Z" fill="white"/>
</g>
<g style="mix-blend-mode:difference">
<path d="M521.719 653.375C518.488 683.544 491.432 705.383 461.288 702.154C323.165 687.362 277.639 560.143 281.878 520.568C310.636 630.768 418.738 610.274 435.315 602.771C447.116 597.43 459.098 591.417 472.988 592.905C503.132 596.133 524.95 623.207 521.719 653.375Z" fill="white"/>
</g>
<g style="mix-blend-mode:difference">
<path d="M783.771 597.019H544.254V595.26C633.687 528.877 716.905 382.483 716.905 382.483H661.517C647.213 382.483 635.403 383.069 626.089 384.242C617.107 385.121 609.622 387.172 603.634 390.396C597.979 393.327 593.654 397.577 590.66 403.145C587.666 408.421 585.337 415.601 583.674 424.687H564C568.5 406.5 569.5 388 569.5 364.019H790.258V365.777L620.101 576.796H678.483C695.449 576.796 709.421 576.21 720.398 575.038C731.709 573.865 740.857 571.521 747.843 568.004C755.162 564.487 760.817 559.651 764.809 553.496C769.133 547.342 772.793 539.135 775.787 528.877H792.254L783.771 597.019Z" fill="white"/>
</g>
</svg>
