<svg width="799" height="799" viewBox="0 0 799 799" fill="none" xmlns="http://www.w3.org/2000/svg">
<g style="mix-blend-mode:difference">
<path fill-rule="evenodd" clip-rule="evenodd" d="M324 691C502.94 691 648 545.94 648 367C648 188.061 502.94 43 324 43C145.06 43 0 188.061 0 367C0 545.94 145.06 691 324 691ZM286.013 652.702C404.378 683.212 533.389 579.698 574.167 421.499C614.944 263.3 552.046 110.321 433.68 79.8114C315.315 49.3016 186.304 152.815 145.527 311.014C104.75 469.213 167.647 622.192 286.013 652.702Z" fill="white"/>
</g>
<g style="mix-blend-mode:difference">
<path d="M603.759 693.808C600.02 728.72 568.709 753.994 533.825 750.258C373.982 733.139 321.298 585.915 326.203 540.117C359.483 667.646 484.584 643.929 503.768 635.247C517.424 629.066 531.291 622.107 547.365 623.829C582.25 627.565 607.498 658.895 603.759 693.808Z" fill="white"/>
</g>
<g style="mix-blend-mode:difference">
<path d="M798.5 406H577.795C576 415 572 430.5 569.209 439H743L529.5 622.5H760L766 608H580L798.5 406Z" fill="white"/>
</g>
</svg>
