<svg width="799" height="799" viewBox="0 0 799 799" fill="none" xmlns="http://www.w3.org/2000/svg">
<g style="mix-blend-mode:difference">
<path fill-rule="evenodd" clip-rule="evenodd" d="M278.5 650C432.311 650 557 525.311 557 371.5C557 217.689 432.311 93 278.5 93C124.689 93 0 217.689 0 371.5C0 525.311 124.689 650 278.5 650ZM245.848 617.08C347.591 643.305 458.484 554.329 493.535 418.346C528.586 282.363 474.521 150.867 372.778 124.642C271.035 98.4166 160.141 187.393 125.09 323.376C90.0398 459.359 144.104 590.855 245.848 617.08Z" fill="white"/>
</g>
<g style="mix-blend-mode:difference">
<path d="M519.183 652.641C515.967 682.662 489.043 704.395 459.045 701.183C321.594 686.462 276.29 559.862 280.508 520.479C309.126 630.144 416.702 609.749 433.199 602.283C444.942 596.968 456.867 590.984 470.689 592.464C500.686 595.677 522.398 622.619 519.183 652.641Z" fill="white"/>
</g>
<g style="mix-blend-mode:difference">
<path d="M799 327.486H491.5C498 347.986 499.5 359.486 502 375.5H685L419 557H714.213L745.5 514H518.064L799 327.486Z" fill="white"/>
</g>
</svg>
